<?xml version="1.0" encoding="utf-8"?>
<!-- Generator: Adobe Illustrator 15.1.0, SVG Export Plug-In . SVG Version: 6.00 Build 0)  -->
<!DOCTYPE svg PUBLIC "-//W3C//DTD SVG 1.1//EN" "http://www.w3.org/Graphics/SVG/1.1/DTD/svg11.dtd">
<svg version="1.1" id="Layer_1" xmlns="http://www.w3.org/2000/svg" xmlns:xlink="http://www.w3.org/1999/xlink" x="0px" y="0px"
	 width="30px" height="30px" viewBox="0 0 30 30" style="enable-background:new 0 0 30 30;" xml:space="preserve">
<style type="text/css">
<![CDATA[
	.st0{fill:#FFFFFF;}
]]>
</style>
<g>
	<polygon class="st0" points="6.503,13.109 5.867,12.472 5.867,11.677 6.503,11.04 9.577,11.04 5,6.463 5,5.563 5.563,5 6.463,5 
		11.04,9.577 11.04,6.503 11.677,5.867 12.472,5.867 13.109,6.503 13.109,12.472 12.472,13.109 	"/>
	<polygon class="st0" points="17.527,13.109 16.892,12.472 16.892,6.503 17.527,5.867 18.324,5.867 18.96,6.503 18.96,9.577 
		23.537,5 24.438,5 25,5.563 25,6.463 20.423,11.04 23.497,11.04 24.133,11.677 24.133,12.472 23.497,13.109 	"/>
	<polygon class="st0" points="5,24.438 5,23.537 9.577,18.96 6.503,18.96 5.867,18.324 5.867,17.527 6.503,16.892 12.472,16.892 
		13.109,17.527 13.109,23.497 12.472,24.133 11.677,24.133 11.04,23.497 11.04,20.423 6.463,25 5.563,25 	"/>
	<polygon class="st0" points="18.96,20.423 18.96,23.497 18.324,24.133 17.527,24.133 16.892,23.497 16.892,17.527 17.527,16.892 
		23.497,16.892 24.133,17.527 24.133,18.324 23.497,18.96 20.423,18.96 25,23.537 25,24.438 24.438,25 23.537,25 	"/>
</g>
</svg>
