<?xml version="1.0" encoding="utf-8"?>
<!-- Generator: Adobe Illustrator 15.1.0, SVG Export Plug-In . SVG Version: 6.00 Build 0)  -->
<!DOCTYPE svg PUBLIC "-//W3C//DTD SVG 1.1//EN" "http://www.w3.org/Graphics/SVG/1.1/DTD/svg11.dtd">
<svg version="1.1" id="Layer_1" xmlns="http://www.w3.org/2000/svg" xmlns:xlink="http://www.w3.org/1999/xlink" x="0px" y="0px"
	 width="50px" height="50px" viewBox="0 0 50 50" enable-background="new 0 0 50 50" xml:space="preserve">
<g>
	<path fill="#b3b1af" d="M25.973,27.27c-0.871-0.595-2.536-2.04-2.536-2.891c0-0.997,0.294-1.486,1.849-2.658
		c1.594-1.2,2.724-2.889,2.724-4.851c0-2.337-1.081-4.615-3.107-5.367h3.056L30.116,10h-9.641c-4.321,0-8.39,3.156-8.39,6.81
		c0,3.736,2.947,6.751,7.344,6.751c0.306,0,0.603-0.007,0.894-0.026c-0.285,0.525-0.491,1.12-0.491,1.733
		c0,1.039,0.581,1.881,1.313,2.568c-0.554,0-1.089,0.017-1.669,0.017c-5.354,0-9.476,3.284-9.476,6.692
		C10,37.901,14.518,40,19.871,40c6.102,0,9.474-3.337,9.474-6.692C29.345,30.616,28.521,29.004,25.973,27.27z M20.824,22.613
		c-2.483-0.071-4.844-2.677-5.273-5.82c-0.428-3.144,1.238-5.549,3.721-5.479c2.482,0.073,4.845,2.594,5.273,5.737
		C24.972,20.196,23.307,22.686,20.824,22.613z M19.851,38.516c-3.701,0-6.374-2.257-6.374-4.969c0-2.657,3.315-4.87,7.017-4.831
		c0.863,0.009,1.667,0.143,2.398,0.37c2.007,1.348,3.449,2.106,3.854,3.643c0.077,0.311,0.119,0.63,0.119,0.957
		C26.866,36.398,25.054,38.516,19.851,38.516z"/>
	<polygon fill="#FFFFFF" points="36.246,22.887 36.246,19.271 33.227,19.271 33.227,22.887 29.474,22.887 29.474,25.799 
		33.227,25.799 33.227,29.416 36.246,29.416 36.246,25.799 40,25.799 40,22.887 	"/>
</g>
<g>
	<path fill="#b3b1af" d="M25.973,27.27c-0.871-0.595-2.536-2.04-2.536-2.891c0-0.997,0.294-1.486,1.849-2.658
		c1.594-1.2,2.724-2.889,2.724-4.851c0-2.337-1.081-4.615-3.107-5.367h3.056L30.116,10h-9.641c-4.321,0-8.39,3.156-8.39,6.81
		c0,3.736,2.947,6.751,7.344,6.751c0.306,0,0.603-0.007,0.894-0.026c-0.285,0.525-0.491,1.12-0.491,1.733
		c0,1.039,0.581,1.881,1.313,2.568c-0.554,0-1.089,0.017-1.669,0.017c-5.354,0-9.476,3.284-9.476,6.692
		C10,37.901,14.518,40,19.871,40c6.102,0,9.474-3.337,9.474-6.692C29.345,30.616,28.521,29.004,25.973,27.27z M20.824,22.613
		c-2.483-0.071-4.844-2.677-5.273-5.82c-0.428-3.144,1.238-5.549,3.721-5.479c2.482,0.073,4.845,2.594,5.273,5.737
		C24.972,20.196,23.307,22.686,20.824,22.613z M19.851,38.516c-3.701,0-6.374-2.257-6.374-4.969c0-2.657,3.315-4.87,7.017-4.831
		c0.863,0.009,1.667,0.143,2.398,0.37c2.007,1.348,3.449,2.106,3.854,3.643c0.077,0.311,0.119,0.63,0.119,0.957
		C26.866,36.398,25.054,38.516,19.851,38.516z"/>
	<polygon fill="#b3b1af" points="36.246,22.887 36.246,19.271 33.227,19.271 33.227,22.887 29.474,22.887 29.474,25.799 
		33.227,25.799 33.227,29.416 36.246,29.416 36.246,25.799 40,25.799 40,22.887 	"/>
</g>
</svg>
