<?xml version="1.0" encoding="utf-8"?>
<!-- Generator: Adobe Illustrator 15.1.0, SVG Export Plug-In . SVG Version: 6.00 Build 0)  -->
<!DOCTYPE svg PUBLIC "-//W3C//DTD SVG 1.1//EN" "http://www.w3.org/Graphics/SVG/1.1/DTD/svg11.dtd">
<svg version="1.1" id="Layer_1" xmlns="http://www.w3.org/2000/svg" xmlns:xlink="http://www.w3.org/1999/xlink" x="0px" y="0px"
	 width="629.799px" height="384.116px" viewBox="0 0 629.799 384.116" enable-background="new 0 0 629.799 384.116"
	 xml:space="preserve">
<path fill-rule="evenodd" clip-rule="evenodd" fill="#F48120" d="M568.291,141.604h-55.618
	C483.894,80.115,405.228,35.915,312.645,35.915c-116.856,0-211.63,70.363-211.63,157.122c0,86.698,94.773,157.049,211.63,157.049
	c80.442,0,150.351-33.363,186.151-82.392H153.495v-23.844c106.704,0,309.5-0.123,415.835,0
	c-33.771,68.955-134.636,119.674-253.968,119.674c-146.829,0-265.823-75.957-265.823-169.541
	c0-93.606,118.994-169.562,265.823-169.562C433.551,24.422,533.655,73.596,568.291,141.604"/>
<path fill="#F48120" d="M317.354,0.001c-0.786,0-1.569,0.011-2.355,0.015c-0.785-0.004-1.567-0.015-2.354-0.015
	C139.977,0.001,0,86.372,0,193.037C0,299.609,139.977,386,312.645,386c0.787,0,1.569-0.012,2.354-0.016
	c0.786,0.004,1.569,0.016,2.355,0.016C490.022,386,630,299.609,630,193.037C630,86.372,490.022,0.001,317.354,0.001
	 M314.999,367.847c-150.386-0.125-272.386-77.934-272.386-173.863c0-95.934,122-173.709,272.386-173.835
	c150.387,0.126,272.388,77.901,272.388,173.835C587.387,289.913,465.386,367.722,314.999,367.847"/>
<path fill="#0779C0" d="M342.406,222.629c-0.69-9.301-0.235-18.636-0.869-27.951c-0.652-9.557-1.236-19.124-1.07-28.727
	c0.09-5.215-2.628-7.772-7.912-7.89c-4.385-0.099-8.774-0.093-13.158,0.021c-4.663,0.121-6.96,2.163-8.074,6.8
	c-1.723,7.169-3.546,14.315-5.189,21.504c-1.498,6.554-3.628,12.974-4.271,19.716c-0.115,1.198-0.385,2.312-2.121,2.869
	c-1.568-10.152-4.509-19.694-6.601-29.437c-1.112-5.185-2.457-10.329-3.925-15.426c-1.281-4.443-3.369-5.982-7.845-6.062
	c-4.643-0.083-9.287,0.018-13.931,0.017c-3.104-0.001-5.038,1.608-6.212,4.379c-0.725,1.711-0.88,3.484-0.886,5.318
	c-0.017,5.571-0.099,11.143-0.15,16.713c-0.103,11.14-1.715,22.215-1.36,33.375c0.111,3.496,0.026,6.987-0.533,10.465
	c-0.376,2.339-0.026,2.797,2.312,2.869c3.737,0.114,7.482-0.042,11.221,0.066c1.954,0.056,2.491-0.836,2.343-2.584
	c-0.088-1.032-0.07-2.074-0.066-3.109c0.021-5.054-0.101-10.111,0.118-15.156c0.225-5.155,1.024-10.29,1.141-15.444
	c0.157-6.979,1.093-13.947,0.357-20.94c-0.053-0.511-0.025-1.039,0.039-1.551c0.044-0.35,0.035-0.866,0.577-0.832
	c0.345,0.022,0.828,0.13,0.983,0.373c0.338,0.522,0.574,1.14,0.728,1.749c1.23,4.895,2.43,9.796,3.644,14.694
	c2.146,8.666,4.276,17.336,6.452,25.994c1.178,4.686,3.664,6.69,8.549,6.854c2.834,0.095,5.682,0.134,8.512-0.022
	c4.116-0.227,6.623-2.494,7.593-6.496c3.326-13.709,6.67-27.414,10.008-41.12c0.092-0.377,0.14-0.774,0.297-1.122
	c0.274-0.607,0.669-1.129,1.455-0.908c0.638,0.178,0.611,0.774,0.618,1.259c0.013,0.905-0.046,1.813-0.1,2.717
	c-0.324,5.32,0.104,10.63,0.45,15.921c0.424,6.448,1.243,12.868,1.274,19.344c0.029,5.831,0.111,11.66,0.112,17.492
	c0.001,1.389-0.05,2.745,1.795,2.769c4.255,0.054,8.512,0.073,12.765-0.015c1.324-0.026,2.055-0.727,1.729-2.327
	C342.792,226.763,342.559,224.69,342.406,222.629"/>
<path fill="#0779C0" d="M565.082,227.778c-0.104-8.422-0.654-16.821-1.221-25.222c-0.844-12.521-0.005-25.115-1.648-37.614
	c-0.603-4.578-2.523-6.784-7.178-6.896c-4.383-0.105-8.772-0.08-13.157,0.006c-4.83,0.095-6.623,1.467-8.037,6.254
	c-0.878,2.976-1.465,6.036-2.222,9.049c-2.739,10.923-5.631,21.809-7.652,32.901c-0.166,0.919-0.207,2.146-1.813,2.251
	c-1.198-2.192-0.915-4.748-1.504-7.093c-3.062-12.18-5.984-24.392-8.916-36.602c-1.125-4.69-3.345-6.713-8.056-6.756
	c-5.542-0.051-11.087,0.09-16.632,0.147c0,0,0.01-0.016,0.01-0.017c-3.111,1.858-4.004,4.776-4.158,8.216
	c-0.494,11.004-0.722,22.012-0.869,33.025c-0.072,5.415-0.443,10.839-1.044,16.245c-0.47,4.232-0.008,8.542-0.792,12.778
	c-0.318,1.72,0.521,2.732,2.346,2.736c3.741,0.008,7.482,0.025,11.223,0.011c1.654-0.007,2.672-0.596,2.512-2.559
	c-0.158-1.932-0.264-3.904-0.058-5.822c0.858-8.007,0.929-16.041,0.785-24.07c-0.151-8.435,0.914-16.812,0.879-25.233
	c-0.002-0.259,0.006-0.518,0.023-0.776c0.045-0.674,0.17-1.316,1.021-1.354c0.771-0.034,1.171,0.486,1.351,1.141
	c0.308,1.121,0.538,2.265,0.813,3.396c3.086,12.709,6.172,25.419,9.269,38.124c0.153,0.628,0.384,1.237,0.605,1.846
	c1.249,3.401,3.643,5.261,7.286,5.343c2.45,0.055,4.902,0.063,7.353,0.035c5.693-0.064,7.781-1.676,9.436-7.234
	c0.258-0.868,0.482-1.748,0.698-2.628c1.697-6.917,3.378-13.838,5.085-20.753c1.305-5.279,2.605-10.56,3.986-15.818
	c0.321-1.22,0.422-2.728,2.074-3.386c0.193,0.628,0.396,0.979,0.396,1.329c0,8.415,1.324,16.777,0.951,25.211
	c-0.144,3.231,0.049,6.465,0.368,9.7c0.686,6.953,1.423,13.931,0.927,20.919c-0.145,2.035,0.451,2.593,2.177,2.604
	c3.354,0.021,6.709,0.051,10.063,0.016C565.168,231.191,565.123,231.158,565.082,227.778"/>
<path fill="#0779C0" d="M214.407,161.512c-0.001-3.38-0.027-3.421-3.43-3.472c-3.482-0.053-6.965-0.045-10.446-0.006
	c-3.103,0.035-3.127,0.067-3.13,3.322c-0.005,6.996,0.035,13.992,0.021,20.988c-0.008,3.124-0.048,3.186-3.227,3.222
	c-4.899,0.058-9.801,0.034-14.701,0.019c-1.934-0.006-3.869-0.041-5.8-0.133c-1.222-0.059-1.72-0.6-1.584-2.011
	c0.698-7.232,0.214-14.49,0.281-21.737c0.023-2.718-0.764-3.536-3.419-3.635c-3.736-0.138-7.479-0.022-11.22-0.055
	c-1.662-0.015-2.316,0.818-2.256,2.401c0.03,0.777,0.004,1.555,0.004,2.331c0.001,15.55,0.005,31.097,0.001,46.645
	c-0.002,6.219-0.035,12.438-0.03,18.657c0.003,3.07,0.027,3.124,2.884,3.168c3.611,0.057,7.224,0.063,10.834-0.009
	c2.647-0.052,3.062-0.514,3.252-3.209c0.063-0.903,0.009-1.814,0.009-2.72c-0.003-7.775-0.029-15.55,0.004-23.321
	c0.011-2.637,0.344-3.178,2.733-3.225c6.445-0.125,12.895-0.077,19.343-0.028c1.831,0.014,2.823,1.088,2.871,2.961
	c0.023,0.905,0.042,1.814,0.042,2.722c-0.002,7.644-0.004,15.288-0.016,22.931c-0.007,4.136-0.408,3.912,4.016,3.924
	c3.095,0.008,6.19,0.022,9.286-0.015c3.636-0.042,3.664-0.066,3.669-3.638c0.016-11.013,0.006-22.027,0.006-33.039h-0.027
	c0-1.037-0.001-2.074,0-3.109C214.388,181.464,214.409,171.488,214.407,161.512"/>
<path fill="#0779C0" d="M472.406,224.834c-5.64-18.305-11.26-36.616-16.88-54.928c-0.683-2.227-1.234-4.498-2.021-6.686
	c-1.214-3.369-3.498-5.341-7.277-5.201c-2.061,0.077-4.127,0.015-6.188,0.015v0.021c-2.321,0-4.643,0.016-6.964-0.004
	c-3.084-0.025-5.119,1.544-6.297,4.278c-0.663,1.54-1.181,3.151-1.672,4.758c-3.443,11.261-6.816,22.543-10.306,33.789
	c-2.835,9.146-5.801,18.249-8.708,27.374c-0.801,2.51-0.656,2.881,1.745,2.938c4.253,0.1,8.51-0.015,12.764,0.058
	c1.698,0.03,1.971-0.813,2.313-2.302c1.044-4.532,2.324-9.017,3.655-13.476c0.519-1.736,1.322-3.448,3.627-3.444
	c6.446,0.008,12.894-0.006,19.34,0c1.775,0.002,2.883,0.959,3.46,2.586c0.389,1.097,0.791,2.193,1.096,3.316
	c0.951,3.497,1.856,7.007,2.782,10.51c0.421,1.592,1.025,2.863,3.067,2.813c4.124-0.101,8.253,0.017,12.376-0.093
	c2.095-0.055,2.247-0.412,1.565-2.318C473.404,227.499,472.824,226.192,472.406,224.834 M446.617,199.482
	c-2.318,0.018-4.637,0.005-6.954,0.005v-0.006c-2.061,0-4.124,0.067-6.181-0.021c-2.21-0.093-2.529-0.51-1.962-2.598
	c1.594-5.861,3.263-11.702,4.88-17.559c0.652-2.364,1.219-4.754,1.877-7.117c0.246-0.886,0.659-1.794,1.787-1.701
	c0.857,0.071,1.28,0.803,1.553,1.553c0.218,0.604,0.384,1.231,0.523,1.86c1.597,7.199,3.741,14.249,5.739,21.339
	c0.209,0.744,0.418,1.501,0.496,2.264C448.506,198.752,447.9,199.472,446.617,199.482"/>
<path fill="#0779C0" d="M400.903,218.149c-1.155,0.059-2.318-0.021-3.479-0.025c-5.798-0.028-11.598-0.005-17.396-0.09
	c-6.022-0.087-6.992-1.093-7-6.99c-0.011-7.896-0.003-15.794-0.005-23.69c-0.003-8.544,0.024-17.089-0.017-25.633
	c-0.017-3.253-0.318-3.563-3.542-3.667c-3.089-0.1-6.186-0.097-9.276-0.023c-3.679,0.086-4.253,0.657-4.259,4.349
	c-0.026,17.865-0.079,35.732,0.017,53.597c0.044,8.116,5.9,15.472,15.059,15.366c8.891-0.104,17.782-0.113,26.673-0.184
	c0.768-0.006,1.559-0.052,2.298-0.242c2.283-0.597,3.193-1.685,3.33-4.111c0.116-2.066,0.008-4.145,0.132-6.211
	C403.552,218.681,402.655,218.062,400.903,218.149"/>
<path fill="#0779C0" d="M245.331,194.646c0-2.589-0.002-5.179,0-7.767c0.007-8.673,0.016-17.346,0.026-26.02
	c0.002-1.281,0.29-2.656-1.632-2.897c-4.624-0.582-9.237-0.732-13.857,0.019c-1.339,0.217-2.076,0.922-2.067,2.331
	c0.005,1.035-0.021,2.069-0.021,3.105c-0.006,20.582-0.009,41.165-0.014,61.745c-0.001,1.295,0.052,2.593-0.031,3.885
	c-0.11,1.691,0.703,2.313,2.282,2.313c4.252-0.003,8.504,0.098,12.755,0.028c2.688-0.044,2.729-0.232,2.727-2.959
	c-0.013-11.261-0.005-22.522-0.005-33.783H245.331z"/>
<rect fill="none" width="629.998" height="386"/>
</svg>
