<?xml version="1.0" encoding="utf-8"?>
<!-- Generator: Adobe Illustrator 15.1.0, SVG Export Plug-In . SVG Version: 6.00 Build 0)  -->
<!DOCTYPE svg PUBLIC "-//W3C//DTD SVG 1.1//EN" "http://www.w3.org/Graphics/SVG/1.1/DTD/svg11.dtd">
<svg version="1.1" id="Layer_1" xmlns="http://www.w3.org/2000/svg" xmlns:xlink="http://www.w3.org/1999/xlink" x="0px" y="0px"
	 width="30px" height="30px" viewBox="0 0 30 30" style="enable-background:new 0 0 30 30;" xml:space="preserve">
<style type="text/css">
<![CDATA[
	.st0{fill:#FFFFFF;}
]]>
</style>
<path class="st0" d="M2,10.344v9.214h7.38l6.12,6.265V4.08l-6.12,6.265L2,10.344L2,10.344z M10.653,11.647L13.7,8.528v12.846
	l-3.047-3.119l-0.528-0.54H9.38H3.8v-5.528H9.38h0.745L10.653,11.647z"/>
<path class="st0" d="M25.439,4l-1.16,0.885C26.34,7.709,27.561,11.213,27.561,15c0,3.79-1.221,7.292-3.281,10.117L25.439,26
	C27.675,22.931,29,19.125,29,15C29,10.876,27.675,7.069,25.439,4z"/>
<path class="st0" d="M21.958,23.348c1.702-2.334,2.724-5.217,2.724-8.347c0-3.13-1.021-6.013-2.724-8.347l-1.151,0.878
	C22.329,9.62,23.243,12.2,23.243,15c0,2.8-0.913,5.379-2.437,7.468L21.958,23.348z"/>
<path class="st0" d="M18.501,20.711c1.164-1.596,1.863-3.568,1.863-5.71c0-2.143-0.699-4.115-1.863-5.712l-1.151,0.879
	c0.984,1.351,1.574,3.021,1.574,4.833c0,1.813-0.59,3.481-1.574,4.833L18.501,20.711z"/>
</svg>
